<?xml version="1.0" encoding="UTF-8"?>
<svg width="400" height="200" viewBox="0 0 400 200" xmlns="http://www.w3.org/2000/svg">
  <defs>
    <linearGradient id="bg" x1="0%" y1="0%" x2="100%" y2="100%">
      <stop offset="0%" style="stop-color:#7c3aed;stop-opacity:0.1"/>
      <stop offset="100%" style="stop-color:#7c3aed;stop-opacity:0.05"/>
    </linearGradient>
  </defs>
  <rect x="0" y="0" width="400" height="200" fill="url(#bg)" rx="10" ry="10"/>
  
  <!-- Connected people icons -->
  <circle cx="100" cy="70" r="20" fill="#444" opacity="0.8"/>
  <circle cx="200" cy="70" r="20" fill="#444" opacity="0.8"/>
  <circle cx="300" cy="70" r="20" fill="#444" opacity="0.8"/>
  <circle cx="150" cy="130" r="20" fill="#444" opacity="0.8"/>
  <circle cx="250" cy="130" r="20" fill="#444" opacity="0.8"/>
  
  <!-- Person silhouettes -->
  <circle cx="100" cy="60" r="8" fill="#777"/>
  <rect x="92" y="68" width="16" height="15" rx="4" ry="4" fill="#777"/>
  
  <circle cx="200" cy="60" r="8" fill="#777"/>
  <rect x="192" y="68" width="16" height="15" rx="4" ry="4" fill="#777"/>
  
  <circle cx="300" cy="60" r="8" fill="#777"/>
  <rect x="292" y="68" width="16" height="15" rx="4" ry="4" fill="#777"/>
  
  <circle cx="150" cy="120" r="8" fill="#777"/>
  <rect x="142" y="128" width="16" height="15" rx="4" ry="4" fill="#777"/>
  
  <circle cx="250" cy="120" r="8" fill="#777"/>
  <rect x="242" y="128" width="16" height="15" rx="4" ry="4" fill="#777"/>
  
  <!-- Connection lines -->
  <line x1="120" y1="70" x2="180" y2="70" stroke="#7c3aed" stroke-width="2" opacity="0.7">
    <animate attributeName="opacity" values="0.4;0.8;0.4" dur="2s" repeatCount="indefinite"/>
  </line>
  <line x1="220" y1="70" x2="280" y2="70" stroke="#7c3aed" stroke-width="2" opacity="0.7">
    <animate attributeName="opacity" values="0.4;0.8;0.4" dur="2.5s" repeatCount="indefinite"/>
  </line>
  <line x1="100" y1="90" x2="150" y2="110" stroke="#7c3aed" stroke-width="2" opacity="0.7">
    <animate attributeName="opacity" values="0.4;0.8;0.4" dur="1.8s" repeatCount="indefinite"/>
  </line>
  <line x1="200" y1="90" x2="170" y2="110" stroke="#7c3aed" stroke-width="2" opacity="0.7">
    <animate attributeName="opacity" values="0.4;0.8;0.4" dur="2.2s" repeatCount="indefinite"/>
  </line>
  <line x1="200" y1="90" x2="230" y2="110" stroke="#7c3aed" stroke-width="2" opacity="0.7">
    <animate attributeName="opacity" values="0.4;0.8;0.4" dur="2.3s" repeatCount="indefinite"/>
  </line>
  <line x1="300" y1="90" x2="250" y2="110" stroke="#7c3aed" stroke-width="2" opacity="0.7">
    <animate attributeName="opacity" values="0.4;0.8;0.4" dur="1.9s" repeatCount="indefinite"/>
  </line>
  <line x1="170" y1="130" x2="230" y2="130" stroke="#7c3aed" stroke-width="2" opacity="0.7">
    <animate attributeName="opacity" values="0.4;0.8;0.4" dur="2.1s" repeatCount="indefinite"/>
  </line>
  
  <!-- Document in center -->
  <rect x="180" y="160" width="40" height="50" rx="2" ry="2" fill="#555" opacity="0.8"/>
  <rect x="185" y="170" width="30" height="3" fill="#ddd" opacity="0.8"/>
  <rect x="185" y="180" width="30" height="3" fill="#ddd" opacity="0.8"/>
  <rect x="185" y="190" width="20" height="3" fill="#ddd" opacity="0.8"/>
  
  <!-- Connections to document -->
  <line x1="100" y1="90" x2="180" y2="160" stroke="#7c3aed" stroke-width="1" stroke-dasharray="3 2" opacity="0.5"/>
  <line x1="200" y1="90" x2="200" y2="160" stroke="#7c3aed" stroke-width="1" stroke-dasharray="3 2" opacity="0.5"/>
  <line x1="300" y1="90" x2="220" y2="160" stroke="#7c3aed" stroke-width="1" stroke-dasharray="3 2" opacity="0.5"/>
  <line x1="150" y1="150" x2="180" y2="170" stroke="#7c3aed" stroke-width="1" stroke-dasharray="3 2" opacity="0.5"/>
  <line x1="250" y1="150" x2="220" y2="170" stroke="#7c3aed" stroke-width="1" stroke-dasharray="3 2" opacity="0.5"/>
</svg>
