<?xml version="1.0" encoding="UTF-8"?>
<svg width="400" height="200" viewBox="0 0 400 200" xmlns="http://www.w3.org/2000/svg">
  <defs>
    <linearGradient id="bg" x1="0%" y1="0%" x2="100%" y2="100%">
      <stop offset="0%" style="stop-color:#7c3aed;stop-opacity:0.1"/>
      <stop offset="100%" style="stop-color:#7c3aed;stop-opacity:0.05"/>
    </linearGradient>
  </defs>
  <rect x="0" y="0" width="400" height="200" fill="url(#bg)" rx="10" ry="10"/>
  
  <!-- Document with magnifying glass -->
  <rect x="100" y="40" width="180" height="130" fill="#444" rx="4" ry="4"/>
  <rect x="120" y="60" width="140" height="5" fill="#888" rx="2" ry="2"/>
  <rect x="120" y="75" width="130" height="4" fill="#888" rx="2" ry="2" opacity="0.7"/>
  <rect x="120" y="90" width="140" height="4" fill="#888" rx="2" ry="2" opacity="0.7"/>
  <rect x="120" y="105" width="90" height="4" fill="#888" rx="2" ry="2" opacity="0.7"/>
  
  <!-- Highlight elements -->
  <rect x="170" y="75" width="30" height="4" fill="#7c3aed" rx="2" ry="2"/>
  <rect x="140" y="90" width="40" height="4" fill="#7c3aed" rx="2" ry="2"/>
  
  <!-- Magnifying glass -->
  <circle cx="250" cy="110" r="30" fill="none" stroke="#7c3aed" stroke-width="3" opacity="0.8"/>
  <line x1="270" y1="130" x2="290" y2="150" stroke="#7c3aed" stroke-width="4" stroke-linecap="round" opacity="0.8"/>
  
  <!-- Checkmarks -->
  <circle cx="70" cy="70" r="15" fill="#333" opacity="0.6"/>
  <polyline points="60,70 67,77 80,64" fill="none" stroke="#7c3aed" stroke-width="3" stroke-linecap="round" stroke-linejoin="round"/>
  
  <circle cx="70" cy="110" r="15" fill="#333" opacity="0.6"/>
  <polyline points="60,110 67,117 80,104" fill="none" stroke="#7c3aed" stroke-width="3" stroke-linecap="round" stroke-linejoin="round"/>
  
  <circle cx="70" cy="150" r="15" fill="#333" opacity="0.6"/>
  <polyline points="60,150 67,157 80,144" fill="none" stroke="#7c3aed" stroke-width="3" stroke-linecap="round" stroke-linejoin="round"/>
  
  <!-- Pulse effect -->
  <circle cx="250" cy="110" r="30" fill="none" stroke="#7c3aed" stroke-width="1" opacity="0.5">
    <animate attributeName="r" values="30;35;30" dur="2s" repeatCount="indefinite"/>
    <animate attributeName="opacity" values="0.5;0.2;0.5" dur="2s" repeatCount="indefinite"/>
  </circle>
</svg>
